<svg width="26" height="23" viewBox="0 0 26 23" fill="none" xmlns="http://www.w3.org/2000/svg">
<path d="M12.2264 5.05447e-05C12.2265 0.00122374 12.2262 0.00395567 12.2264 0.00590992C12.2269 0.0100391 12.2284 0.0161152 12.2293 0.023488C12.2311 0.0385971 12.2338 0.060825 12.2371 0.0889177C12.2438 0.145761 12.2524 0.229431 12.2645 0.335988C12.2885 0.549034 12.323 0.857726 12.3621 1.24517C12.4403 2.02011 12.5407 3.11422 12.6297 4.39361C12.7395 5.97178 12.8325 7.85582 12.8445 9.78716C15.5628 9.79161 18.308 9.95934 20.5076 10.1446C21.9022 10.262 23.0912 10.388 23.9324 10.4834C24.3531 10.5312 24.6882 10.5709 24.9188 10.5997C25.0339 10.614 25.1232 10.6259 25.1844 10.6338C25.215 10.6378 25.2394 10.6415 25.2557 10.6436C25.2634 10.6446 25.2699 10.645 25.2742 10.6456C25.2761 10.6458 25.2779 10.6454 25.2791 10.6456L25.2811 10.6465C25.2812 10.6489 25.2724 10.7154 25.0154 12.629L24.7488 14.6104L24.7313 14.6084C24.718 14.6067 24.6976 14.6041 24.6707 14.6006C24.6157 14.5935 24.5321 14.5829 24.4236 14.5694C24.2064 14.5423 23.8862 14.503 23.4813 14.4571C22.6709 14.3651 21.5217 14.2445 20.1727 14.1309C17.9919 13.9472 15.3219 13.7878 12.7293 13.7881C12.6314 15.1543 12.4627 16.493 12.1844 17.6846C11.8859 18.9624 11.4124 20.2953 10.5809 21.2803C10.1444 21.7973 9.57325 22.2616 8.84454 22.5303C8.10465 22.803 7.33043 22.8275 6.57697 22.6583C5.1591 22.3396 3.80393 21.3373 2.49103 19.9844C1.17196 18.6252 0.194808 17.1796 0.0261841 15.6504C-0.170076 13.869 0.762928 12.552 1.9549 11.7403C3.0536 10.9922 4.4907 10.5632 5.91583 10.295C6.83139 10.1227 7.8219 10.002 8.84552 9.92193C8.8371 8.07506 8.74859 6.23816 8.63947 4.66997C8.55385 3.43972 8.45745 2.38841 8.38263 1.64653C8.34528 1.27622 8.31325 0.98301 8.29083 0.78423C8.27964 0.685016 8.27039 0.608834 8.26447 0.558644C8.26152 0.533724 8.25908 0.515031 8.25763 0.50298C8.2569 0.496962 8.25698 0.491967 8.25665 0.489308V0.487355C8.26532 0.486344 8.39203 0.469541 10.241 0.242238C12.2257 -0.0017479 12.2263 -0.000454202 12.2264 5.05447e-05ZM8.70392 13.9493C7.9665 14.0176 7.2783 14.1085 6.65607 14.2256C5.41884 14.4585 4.62524 14.7612 4.20685 15.0459C4.08934 15.126 4.03019 15.1859 4.00372 15.2168C4.02666 15.4029 4.23694 16.0398 5.36115 17.1983C6.50158 18.3735 7.18475 18.6944 7.45392 18.7549C7.45835 18.7559 7.46269 18.7562 7.46661 18.7569C7.48079 18.7433 7.50199 18.7266 7.52423 18.7002C7.74457 18.4391 8.04004 17.844 8.28986 16.7745C8.47873 15.9656 8.61347 15.0076 8.70392 13.9493Z" fill="black"/>
</svg>
